<svg height="512pt" viewBox="0 0 512.01219 512" width="512pt" xmlns="http://www.w3.org/2000/svg"><path d="m25.601562 443.738281h119.464844c4.714844 0 8.535156-3.820312 8.535156-8.53125 0-4.714843-3.820312-8.535156-8.535156-8.535156h-119.464844c-4.714843 0-8.535156-3.820313-8.535156-8.53125v-332.800781h51.199219c9.425781 0 17.066406-7.640625 17.066406-17.066406v-51.199219h196.269531c4.710938 0 8.53125 3.820312 8.53125 8.53125v145.066406c0 4.714844 3.820313 8.535156 8.535157 8.535156 4.710937 0 8.53125-3.820312 8.53125-8.535156v-145.066406c0-14.136719-11.460938-25.5976565-25.597657-25.5976565h-256c-14.140624 0-25.601562 11.4609375-25.601562 25.5976565v392.535156c0 14.136719 11.460938 25.597656 25.601562 25.597656zm3.53125-375.464843 39.132813-39.132813v39.132813zm-3.53125-51.199219h30.597657l-39.132813 39.132812v-30.601562c0-4.710938 3.820313-8.53125 8.535156-8.53125zm0 0"/><path d="m470.476562 196.273438h-43.808593v-8.535157c0-4.710937-3.820313-8.53125-8.535157-8.53125-4.710937 0-8.53125 3.820313-8.53125 8.53125v8.535157h-136.535156v-8.535157c0-4.710937-3.820312-8.53125-8.53125-8.53125-4.714844 0-8.535156 3.820313-8.535156 8.53125v8.535157h-102.398438c-4.714843 0-8.535156 3.820312-8.535156 8.53125 0 4.714843 3.820313 8.535156 8.535156 8.535156h25.332032c-5.402344 7.441406-8.296875 16.40625-8.265625 25.597656h-17.066407c-4.714843 0-8.535156 3.824219-8.535156 8.535156 0 4.714844 3.820313 8.535156 8.535156 8.535156h17.066407v51.199219h-25.601563c-4.710937 0-8.53125 3.820313-8.53125 8.53125 0 4.714844 3.820313 8.535157 8.53125 8.535157h25.601563v25.597656h-25.601563c-4.710937 0-8.53125 3.820312-8.53125 8.535156 0 4.710938 3.820313 8.53125 8.53125 8.53125h25.601563v102.402344c-.273438 11.199218 3.976562 22.035156 11.792969 30.0625 7.8125 8.027344 18.527343 12.570312 29.730468 12.605468h258.285156c11.203126-.035156 21.917969-4.578124 29.730469-12.605468s12.0625-18.863282 11.792969-30.0625v-230.402344c.269531-11.195312-3.980469-22.03125-11.792969-30.058594-7.8125-8.03125-18.527343-12.574218-29.730469-12.605468zm-257.144531 17.066406h42.667969v8.53125c0 4.714844 3.820312 8.535156 8.535156 8.535156 4.710938 0 8.53125-3.820312 8.53125-8.535156v-8.53125h136.535156v8.53125c0 4.714844 3.820313 8.535156 8.53125 8.535156 4.714844 0 8.535157-3.820312 8.535157-8.535156v-8.53125h43.808593c6.664063.074218 13.015626 2.832031 17.617188 7.648437 4.605469 4.820313 7.070312 11.292969 6.839844 17.949219v8.535156h-307.199219v-8.535156c-.230469-6.65625 2.234375-13.128906 6.835937-17.949219 4.605469-4.816406 10.957032-7.574219 17.621094-7.648437zm257.144531 281.597656h-258.285156c-6.664062-.070312-13.015625-2.832031-17.621094-7.648438-4.601562-4.820312-7.066406-11.289062-6.835937-17.949218v-204.800782h307.199219v204.800782c.230468 6.660156-2.234375 13.128906-6.839844 17.949218-4.601562 4.816407-10.953125 7.578126-17.617188 7.648438zm0 0"/><path d="m451.125 281.605469h-219.582031c-14.96875.226562-26.933594 12.523437-26.742188 27.496093v141.277344c-.191406 14.96875 11.773438 27.269532 26.742188 27.492188h219.582031c14.96875-.222656 26.929688-12.523438 26.742188-27.492188v-141.277344c.1875-14.972656-11.773438-27.269531-26.742188-27.496093zm-229.257812 76.800781h34.132812v42.667969h-34.132812zm51.199218 0h34.132813v42.667969h-34.132813zm85.332032-17.066406h-34.132813v-42.667969h34.132813zm17.066406-42.667969h34.136718v42.667969h-34.136718zm-17.066406 59.734375v42.667969h-34.132813v-42.667969zm-51.199219-17.066406h-34.132813v-42.667969h34.132813zm0 76.800781v42.664063h-34.132813v-42.664063zm17.066406 0h34.132813v42.664063h-34.132813zm51.199219 0h34.136718v42.664063h-34.136718zm0-17.066406v-42.667969h34.136718v42.667969zm51.203125-42.667969h34.132812v42.667969h-34.132812zm34.132812-49.304688v32.238282h-34.132812v-42.667969h24.457031c5.542969.222656 9.867188 4.882813 9.675781 10.429687zm-229.257812-10.429687h24.457031v42.667969h-34.132812v-32.238282c-.191407-5.546874 4.132812-10.207031 9.675781-10.429687zm-9.675781 151.707031v-32.238281h34.132812v42.664063h-24.457031c-5.542969-.21875-9.867188-4.878907-9.675781-10.425782zm229.257812 10.425782h-24.457031v-42.664063h34.132812v32.238281c.191407 5.546875-4.132812 10.207032-9.675781 10.425782zm0 0"/><path d="m107.734375 87.207031c-1.769531-1.414062-4.027344-2.070312-6.277344-1.820312s-4.308593 1.382812-5.722656 3.152343l-28.175781 35.199219-10.324219-10.324219c-3.347656-3.234374-8.671875-3.1875-11.964844.105469-3.289062 3.289063-3.335937 8.613281-.101562 11.960938l17.066406 17.066406c1.59375 1.609375 3.765625 2.519531 6.03125 2.527344h.480469c2.421875-.136719 4.671875-1.296875 6.183594-3.191407l34.136718-42.667968c1.414063-1.769532 2.074219-4.027344 1.824219-6.28125-.25-2.25-1.386719-4.3125-3.15625-5.726563zm0 0"/><path d="m107.734375 198.140625c-1.769531-1.414063-4.027344-2.070313-6.277344-1.820313s-4.308593 1.382813-5.722656 3.152344l-28.175781 35.199219-10.324219-10.324219c-3.347656-3.234375-8.671875-3.1875-11.964844.105469-3.289062 3.289063-3.335937 8.613281-.101562 11.960937l17.066406 17.066407c1.59375 1.609375 3.765625 2.519531 6.03125 2.527343h.480469c2.421875-.136718 4.671875-1.296874 6.183594-3.191406l34.136718-42.667968c1.414063-1.769532 2.074219-4.027344 1.824219-6.28125-.25-2.25-1.386719-4.3125-3.15625-5.726563zm0 0"/><path d="m95.734375 310.40625-28.175781 35.199219-10.324219-10.324219c-3.347656-3.234375-8.671875-3.1875-11.964844.101562-3.289062 3.292969-3.335937 8.617188-.101562 11.964844l17.066406 17.066406c1.59375 1.609376 3.765625 2.519532 6.03125 2.523438h.480469c2.421875-.132812 4.671875-1.292969 6.183594-3.191406l34.136718-42.664063c1.902344-2.382812 2.394532-5.597656 1.285156-8.4375-1.109374-2.84375-3.648437-4.875-6.664062-5.335937-3.015625-.457032-6.046875.726562-7.953125 3.105468zm0 0"/><path d="m264.535156 85.339844h-110.933594c-4.714843 0-8.535156 3.820312-8.535156 8.53125 0 4.714844 3.820313 8.535156 8.535156 8.535156h110.933594c4.710938 0 8.53125-3.820312 8.53125-8.535156 0-4.710938-3.820312-8.53125-8.53125-8.53125zm0 0"/><path d="m153.601562 128.007812c-4.714843 0-8.535156 3.820313-8.535156 8.53125 0 4.714844 3.820313 8.535157 8.535156 8.535157h34.132813c4.710937 0 8.53125-3.820313 8.53125-8.535157 0-4.710937-3.820313-8.53125-8.53125-8.53125zm0 0"/><path d="m264.535156 128.007812h-34.136718c-4.710938 0-8.53125 3.820313-8.53125 8.53125 0 4.714844 3.820312 8.535157 8.53125 8.535157h34.136718c4.710938 0 8.53125-3.820313 8.53125-8.535157 0-4.710937-3.820312-8.53125-8.53125-8.53125zm0 0"/></svg>